<svg width="32" height="32" viewBox="0 0 32 32" fill="none" xmlns="http://www.w3.org/2000/svg">
<path fill-rule="evenodd" clip-rule="evenodd" d="M9.89635 26.4272C10.459 26.4272 10.9164 26.8846 10.9164 27.4472C10.9164 28.0099 10.459 28.4659 9.89635 28.4659C9.33369 28.4659 8.87769 28.0099 8.87769 27.4472C8.87769 26.8846 9.33369 26.4272 9.89635 26.4272Z" stroke="white" stroke-width="1.5" stroke-linecap="round" stroke-linejoin="round"/>
<path fill-rule="evenodd" clip-rule="evenodd" d="M24.8996 26.4272C25.4623 26.4272 25.9196 26.8846 25.9196 27.4472C25.9196 28.0099 25.4623 28.4659 24.8996 28.4659C24.337 28.4659 23.8796 28.0099 23.8796 27.4472C23.8796 26.8846 24.337 26.4272 24.8996 26.4272Z" stroke="white" stroke-width="1.5" stroke-linecap="round" stroke-linejoin="round"/>
<path d="M3.6665 4.3335L6.43984 4.8135L7.72384 20.1108C7.82784 21.3575 8.86917 22.3148 10.1198 22.3148H24.6692C25.8638 22.3148 26.8772 21.4375 27.0492 20.2535L28.3145 11.5095C28.4705 10.4308 27.6345 9.4655 26.5452 9.4655H6.88517" stroke="white" stroke-width="1.5" stroke-linecap="round" stroke-linejoin="round"/>
<path d="M18.8337 14.3937H22.5311" stroke="white" stroke-width="1.5" stroke-linecap="round" stroke-linejoin="round"/>
</svg>
