<svg width="32" height="32" viewBox="0 0 32 32" fill="none" xmlns="http://www.w3.org/2000/svg">
<path d="M6.3925 9.40782C6.3925 7.74249 7.74317 6.39182 9.40717 6.39182H10.7792C11.5738 6.39182 12.3378 6.07716 12.9032 5.51582L13.8618 4.55582C15.0365 3.37582 16.9458 3.37049 18.1258 4.54516L18.1378 4.55582L19.0978 5.51582C19.6618 6.07716 20.4258 6.39182 21.2218 6.39182H22.5925C24.2578 6.39182 25.6085 7.74249 25.6085 9.40782V10.7772C25.6085 11.5745 25.9232 12.3372 26.4845 12.9025L27.4445 13.8625C28.6245 15.0372 28.6312 16.9452 27.4565 18.1265L27.4445 18.1385L26.4845 19.0985C25.9232 19.6612 25.6085 20.4265 25.6085 21.2212V22.5932C25.6085 24.2585 24.2578 25.6078 22.5925 25.6078H21.2218C20.4258 25.6078 19.6618 25.9238 19.0978 26.4852L18.1378 27.4438C16.9645 28.6252 15.0552 28.6305 13.8738 27.4558C13.8698 27.4518 13.8658 27.4478 13.8618 27.4438L12.9032 26.4852C12.3378 25.9238 11.5738 25.6078 10.7792 25.6078H9.40717C7.74317 25.6078 6.3925 24.2585 6.3925 22.5932V21.2212C6.3925 20.4265 6.0765 19.6612 5.51517 19.0985L4.5565 18.1385C3.37517 16.9638 3.36984 15.0545 4.5445 13.8745L4.5565 13.8625L5.51517 12.9025C6.0765 12.3372 6.3925 11.5745 6.3925 10.7772V9.40782" stroke="white" stroke-width="1.5" stroke-linecap="round" stroke-linejoin="round"/>
<path d="M12.5735 19.4261L19.4268 12.5728" stroke="white" stroke-width="1.5" stroke-linecap="round" stroke-linejoin="round"/>
<path d="M19.4224 20.43C19.1557 20.43 18.9024 20.3234 18.7157 20.1367C18.6224 20.0434 18.5557 19.9234 18.5024 19.8034C18.449 19.6834 18.4224 19.5647 18.4224 19.43C18.4224 19.2967 18.449 19.1634 18.5024 19.0434C18.5557 18.9234 18.6224 18.8167 18.7157 18.7234C19.089 18.35 19.7557 18.35 20.129 18.7234C20.2224 18.8167 20.3024 18.9234 20.3557 19.0434C20.3957 19.1634 20.4224 19.2967 20.4224 19.43C20.4224 19.5647 20.3957 19.6834 20.3557 19.8034C20.3024 19.9234 20.2224 20.0434 20.129 20.1367C19.9424 20.3234 19.689 20.43 19.4224 20.43Z" fill="white"/>
<path d="M12.5688 13.577C12.4355 13.577 12.3155 13.549 12.1955 13.4957C12.0755 13.4424 11.9555 13.377 11.8622 13.2837C11.7688 13.177 11.7022 13.0704 11.6488 12.9504C11.5955 12.829 11.5688 12.7104 11.5688 12.577C11.5688 12.4424 11.5955 12.3104 11.6488 12.1904C11.7022 12.0704 11.7688 11.9504 11.8622 11.8704C12.2488 11.4957 12.9022 11.4957 13.2755 11.8704C13.4622 12.0557 13.5688 12.3104 13.5688 12.577C13.5688 12.7104 13.5555 12.829 13.5022 12.9504C13.4488 13.0704 13.3688 13.177 13.2755 13.2837C13.1822 13.377 13.0755 13.4424 12.9555 13.4957C12.8355 13.549 12.7022 13.577 12.5688 13.577Z" fill="white"/>
</svg>
