<svg width="16" height="16" viewBox="0 0 16 16" fill="none" xmlns="http://www.w3.org/2000/svg">
<path d="M6.55439 12.2124H1.00049" stroke="#9A9AB0" stroke-width="1.5" stroke-linecap="round" stroke-linejoin="round"/>
<path fill-rule="evenodd" clip-rule="evenodd" d="M15 12.2121C15 13.4332 14.0101 14.4231 12.789 14.4231C11.5678 14.4231 10.5779 13.4332 10.5779 12.2121C10.5779 10.99 11.5678 10.001 12.789 10.001C14.0101 10.001 15 10.99 15 12.2121Z" stroke="#9A9AB0" stroke-width="1.5" stroke-linecap="round" stroke-linejoin="round"/>
<path d="M9.44507 3.21138H14.9999" stroke="#9A9AB0" stroke-width="1.5" stroke-linecap="round" stroke-linejoin="round"/>
<path fill-rule="evenodd" clip-rule="evenodd" d="M1 3.21108C1 4.43314 1.98993 5.42216 3.21108 5.42216C4.43224 5.42216 5.42216 4.43314 5.42216 3.21108C5.42216 1.98993 4.43224 1 3.21108 1C1.98993 1 1 1.98993 1 3.21108Z" stroke="#9A9AB0" stroke-width="1.5" stroke-linecap="round" stroke-linejoin="round"/>
</svg>
