<svg width="24" height="25" viewBox="0 0 24 25" fill="none" xmlns="http://www.w3.org/2000/svg">
<path fill-rule="evenodd" clip-rule="evenodd" d="M12 23.4236C5.92487 23.4236 1 18.4987 1 12.4236C1 6.34845 5.92487 1.42358 12 1.42358C18.0751 1.42358 23 6.34845 23 12.4236C23 18.4987 18.0751 23.4236 12 23.4236ZM19.3995 17.5482C20.4086 16.0939 21 14.3278 21 12.4236C21 7.45302 16.9706 3.42358 12 3.42358C7.02944 3.42358 3 7.45302 3 12.4236C3 14.3278 3.59138 16.0939 4.6005 17.5482C5.72595 16.0617 8.3706 15.4236 12 15.4236C15.6294 15.4236 18.274 16.0617 19.3995 17.5482ZM17.9647 19.1633C17.672 18.1109 15.5694 17.4236 12 17.4236C8.43062 17.4236 6.328 18.1109 6.03532 19.1633C7.6233 20.5698 9.71194 21.4236 12 21.4236C14.2881 21.4236 16.3767 20.5698 17.9647 19.1633ZM12 15.4236C9.76086 15.4236 8 13.851 8 10.4236C8 8.17934 9.5791 6.42358 12 6.42358C14.4142 6.42358 16 8.34516 16 10.6236C16 13.9032 14.2181 15.4236 12 15.4236ZM10 10.4236C10 12.6928 10.8182 13.4236 12 13.4236C13.1777 13.4236 14 12.722 14 10.6236C14 9.374 13.2157 8.42358 12 8.42358C10.7337 8.42358 10 9.23941 10 10.4236Z" fill="#9A9AB0"/>
</svg>
