<svg width="25" height="25" viewBox="0 0 25 25" fill="none" xmlns="http://www.w3.org/2000/svg">
<path d="M20.9494 10.3391H21.9484V5.33911H3.96741V10.3391H4.96635C5.49622 10.3391 6.00439 10.5498 6.37907 10.9249C6.75374 11.3 6.96423 11.8087 6.96423 12.3391C6.96423 12.8695 6.75374 13.3783 6.37907 13.7533C6.00439 14.1284 5.49622 14.3391 4.96635 14.3391H3.96741V19.3391H21.9484V14.3391H20.9494C20.4195 14.3391 19.9114 14.1284 19.5367 13.7533C19.162 13.3783 18.9515 12.8695 18.9515 12.3391C18.9515 11.8087 19.162 11.3 19.5367 10.9249C19.9114 10.5498 20.4195 10.3391 20.9494 10.3391ZM19.9505 16.2131V17.3391H5.96529V16.2131C6.82391 15.9921 7.58472 15.4915 8.12797 14.7902C8.67123 14.0889 8.96606 13.2266 8.96606 12.3391C8.96606 11.4516 8.67123 10.5893 8.12797 9.88801C7.58472 9.18667 6.82391 8.68611 5.96529 8.46511V7.33911H19.9505V8.46511C19.0919 8.68611 18.331 9.18667 17.7878 9.88801C17.2445 10.5893 16.9497 11.4516 16.9497 12.3391C16.9497 13.2266 17.2445 14.0889 17.7878 14.7902C18.331 15.4915 19.0919 15.9921 19.9505 16.2131Z" fill="#9A9AB0"/>
<path d="M14.1242 8.78463L10.1285 14.7845L11.7909 15.8939L15.7866 9.89403L14.1242 8.78463Z" fill="#9A9AB0"/>
<path d="M11.9589 9.33911H9.96106V11.3391H11.9589V9.33911Z" fill="#9A9AB0"/>
<path d="M15.9547 13.3391H13.9568V15.3391H15.9547V13.3391Z" fill="#9A9AB0"/>
</svg>
