<svg width="24" height="25" viewBox="0 0 24 25" fill="none" xmlns="http://www.w3.org/2000/svg">
<path fill-rule="evenodd" clip-rule="evenodd" d="M9.49999 11.1697C8.94771 11.1697 8.49999 10.722 8.49999 10.1697C8.49999 9.6174 8.94771 9.16969 9.49999 9.16969C10.0523 9.16969 10.5 9.6174 10.5 10.1697C10.5 10.722 10.0523 11.1697 9.49999 11.1697ZM11.5 17.3797V20.1597C9.22999 20.0297 7.20999 18.9497 5.83999 17.2997C6.51999 16.7597 8.11999 16.1897 9.49999 16.1897C9.57999 16.1897 9.64999 16.1997 9.72999 16.1997C9.96999 15.5597 10.4 14.9097 11.03 14.3397C10.47 14.2297 9.93999 14.1797 9.49999 14.1797C8.19999 14.1797 6.10999 14.6297 4.76999 15.6097C4.27999 14.5697 3.98999 13.4097 3.98999 12.1797C3.98999 7.76969 7.57999 4.17969 11.99 4.17969C16.4 4.17969 19.99 7.76969 19.99 12.1797C19.99 13.3897 19.72 14.5297 19.24 15.5497C18.24 14.9497 16.88 14.6797 16 14.6797C14.48 14.6797 11.5 15.4997 11.5 17.3797ZM16 9.16969C14.89 9.16969 13.99 10.0597 14 11.1697C14 12.2797 14.89 13.1697 16 13.1697C17.11 13.1697 18 12.2797 18 11.1697C18 10.0597 17.11 9.16969 16 9.16969ZM9.49999 13.1697C11.15 13.1697 12.5 11.8197 12.5 10.1697C12.5 8.51969 11.15 7.16969 9.49999 7.16969C7.84999 7.16969 6.49999 8.51969 6.49999 10.1697C6.49999 11.8197 7.84999 13.1697 9.49999 13.1697Z" fill="white"/>
<path fill-rule="evenodd" clip-rule="evenodd" d="M12.5 10.1697C12.5 8.51969 11.15 7.16969 9.49999 7.16969C7.84999 7.16969 6.49999 8.51969 6.49999 10.1697C6.49999 11.8197 7.84999 13.1697 9.49999 13.1697C11.15 13.1697 12.5 11.8197 12.5 10.1697ZM9.49999 11.1697C8.94999 11.1697 8.49999 10.7197 8.49999 10.1697C8.49999 9.61969 8.94999 9.16969 9.49999 9.16969C10.05 9.16969 10.5 9.61969 10.5 10.1697C10.5 10.7197 10.05 11.1697 9.49999 11.1697ZM16 13.1697C17.11 13.1697 18 12.2797 18 11.1697C18 10.0597 17.11 9.16969 16 9.16969C14.89 9.16969 13.99 10.0597 14 11.1697C14 12.2797 14.89 13.1697 16 13.1697ZM11.99 2.17969C6.46999 2.17969 1.98999 6.65969 1.98999 12.1797C1.98999 17.6997 6.46999 22.1797 11.99 22.1797C17.51 22.1797 21.99 17.6997 21.99 12.1797C21.99 6.65969 17.51 2.17969 11.99 2.17969ZM5.83999 17.2897C6.51999 16.7497 8.10999 16.1797 9.49999 16.1797C9.56999 16.1797 9.64999 16.1897 9.72999 16.1897C9.96999 15.5497 10.4 14.8997 11.03 14.3297C10.47 14.2297 9.93999 14.1697 9.49999 14.1697C8.19999 14.1697 6.10999 14.6197 4.76999 15.5997C4.26999 14.5597 3.98999 13.3997 3.98999 12.1697C3.98999 7.75969 7.57999 4.16969 11.99 4.16969C16.4 4.16969 19.99 7.75969 19.99 12.1697C19.99 13.3697 19.72 14.5097 19.24 15.5397C18.24 14.9497 16.88 14.6697 16 14.6697C14.48 14.6697 11.5 15.4797 11.5 17.3697V20.1497C9.22999 20.0197 7.20999 18.9397 5.83999 17.2897Z" fill="#9A9AB0"/>
</svg>
