<svg width="16" height="16" viewBox="0 0 16 16" fill="none" xmlns="http://www.w3.org/2000/svg">
<path fill-rule="evenodd" clip-rule="evenodd" d="M11.2802 1H4.71978C2.43284 1 1 2.61868 1 4.90941V11.0906C1 13.3813 2.42678 15 4.71978 15H11.2795C13.5732 15 15 13.3813 15 11.0906V4.90941C15 2.61868 13.5732 1 11.2802 1Z" stroke="#9A9AB0" stroke-width="1.5" stroke-linecap="round" stroke-linejoin="round"/>
<path fill-rule="evenodd" clip-rule="evenodd" d="M7.03236 5.57796C7.03236 6.35089 6.40507 6.97819 5.63214 6.97819C4.85996 6.97819 4.23267 6.35089 4.23267 5.57796C4.23267 4.80503 4.85996 4.17773 5.63214 4.17773C6.40507 4.17773 7.03236 4.80503 7.03236 5.57796Z" stroke="#9A9AB0" stroke-width="1.5" stroke-linecap="round" stroke-linejoin="round"/>
<path d="M14.9995 10.2536C14.2456 9.59748 13.5894 8.80786 12.7247 8.28676C11.8585 7.76565 10.9278 8.08727 10.3271 8.86475C9.74679 9.61644 9.38421 10.6275 8.50812 11.1016C7.42875 11.6864 6.79463 10.7436 5.89426 10.3659C4.88923 9.94488 4.12616 10.7019 3.53906 11.4293C2.95121 12.1575 2.35577 12.8781 1.75806 13.5987" stroke="#9A9AB0" stroke-width="1.5" stroke-linecap="round" stroke-linejoin="round"/>
</svg>
