<svg width="24" height="24" viewBox="0 0 24 24" fill="none" xmlns="http://www.w3.org/2000/svg">
<path fill-rule="evenodd" clip-rule="evenodd" d="M19.43 12.9802C19.47 12.6602 19.5 12.3402 19.5 12.0002C19.5 11.6602 19.47 11.3402 19.43 11.0202L21.54 9.37024C21.73 9.22024 21.78 8.95024 21.66 8.73024L19.66 5.27024C19.57 5.11024 19.4 5.02024 19.22 5.02024C19.16 5.02024 19.1 5.03024 19.05 5.05024L16.56 6.05024C16.04 5.65024 15.48 5.32024 14.87 5.07024L14.49 2.42024C14.46 2.18024 14.25 2.00024 14 2.00024H9.99996C9.74996 2.00024 9.53996 2.18024 9.50996 2.42024L9.12996 5.07024C8.51996 5.32024 7.95996 5.66024 7.43996 6.05024L4.94996 5.05024C4.88996 5.03024 4.82996 5.02024 4.76996 5.02024C4.59996 5.02024 4.42996 5.11024 4.33996 5.27024L2.33996 8.73024C2.20996 8.95024 2.26996 9.22024 2.45996 9.37024L4.56996 11.0202C4.52996 11.3402 4.49996 11.6702 4.49996 12.0002C4.49996 12.3302 4.52996 12.6602 4.56996 12.9802L2.45996 14.6302C2.26996 14.7802 2.21996 15.0502 2.33996 15.2702L4.33996 18.7302C4.42996 18.8902 4.59996 18.9802 4.77996 18.9802C4.83996 18.9802 4.89996 18.9702 4.94996 18.9502L7.43996 17.9502C7.95996 18.3502 8.51996 18.6802 9.12996 18.9302L9.50996 21.5802C9.53996 21.8202 9.74996 22.0002 9.99996 22.0002H14C14.25 22.0002 14.46 21.8202 14.49 21.5802L14.87 18.9302C15.48 18.6802 16.04 18.3402 16.56 17.9502L19.05 18.9502C19.11 18.9702 19.17 18.9802 19.23 18.9802C19.4 18.9802 19.57 18.8902 19.66 18.7302L21.66 15.2702C21.78 15.0502 21.73 14.7802 21.54 14.6302L19.43 12.9802ZM17.45 11.2702C17.49 11.5802 17.5 11.7902 17.5 12.0002C17.5 12.2102 17.48 12.4302 17.45 12.7302L17.31 13.8602L18.2 14.5602L19.28 15.4002L18.58 16.6102L17.31 16.1002L16.27 15.6802L15.37 16.3602C14.94 16.6802 14.53 16.9202 14.12 17.0902L13.06 17.5202L12.9 18.6502L12.7 20.0002H11.3L11.11 18.6502L10.95 17.5202L9.88996 17.0902C9.45996 16.9102 9.05996 16.6802 8.65996 16.3802L7.74996 15.6802L6.68996 16.1102L5.41996 16.6202L4.71996 15.4102L5.79996 14.5702L6.68996 13.8702L6.54996 12.7402C6.51996 12.4302 6.49996 12.2002 6.49996 12.0002C6.49996 11.8002 6.51996 11.5702 6.54996 11.2702L6.68996 10.1402L5.79996 9.44024L4.71996 8.60024L5.41996 7.39024L6.68996 7.90024L7.72996 8.32024L8.62996 7.64024C9.05996 7.32024 9.46996 7.08024 9.87996 6.91024L10.94 6.48024L11.1 5.35024L11.3 4.00024H12.69L12.88 5.35024L13.04 6.48024L14.1 6.91024C14.53 7.09024 14.93 7.32024 15.33 7.62024L16.24 8.32024L17.3 7.89024L18.57 7.38024L19.27 8.59024L18.2 9.44024L17.31 10.1402L17.45 11.2702ZM12 8.00024C9.78996 8.00024 7.99996 9.79024 7.99996 12.0002C7.99996 14.2102 9.78996 16.0002 12 16.0002C14.21 16.0002 16 14.2102 16 12.0002C16 9.79024 14.21 8.00024 12 8.00024ZM12 14.0002C10.9 14.0002 9.99996 13.1002 9.99996 12.0002C9.99996 10.9002 10.9 10.0002 12 10.0002C13.1 10.0002 14 10.9002 14 12.0002C14 13.1002 13.1 14.0002 12 14.0002Z" fill="#9A9AB0"/>
</svg>
