<svg width="32" height="32" viewBox="0 0 32 32" fill="none" xmlns="http://www.w3.org/2000/svg">
<path fill-rule="evenodd" clip-rule="evenodd" d="M23.8097 27.2222C26.3097 27.2222 28.3337 25.1968 28.3337 22.6982V19.0982C26.6803 19.0982 25.347 17.7648 25.347 16.1128C25.347 14.4595 26.6803 13.1275 28.3337 13.1275L28.331 9.52351C28.331 7.02484 26.307 4.99951 23.8083 4.99951H8.19233C5.69366 4.99951 3.66833 7.02484 3.66833 9.52351L3.66699 13.2435C5.31899 13.2435 6.65233 14.4595 6.65233 16.1128C6.65233 17.7648 5.31899 19.0982 3.66699 19.0982V22.6982C3.66699 25.1968 5.69099 27.2222 8.18966 27.2222H23.8097Z" stroke="white" stroke-width="1.5" stroke-linecap="round" stroke-linejoin="round"/>
<path fill-rule="evenodd" clip-rule="evenodd" d="M15.9997 18.4724L18.3197 19.6924C18.537 19.8057 18.7917 19.6217 18.7503 19.3804L18.3063 16.795L20.185 14.9671C20.361 14.795 20.2637 14.4977 20.021 14.4617L17.4263 14.0844L16.265 11.7324C16.157 11.5124 15.8437 11.5124 15.7343 11.7324L14.573 14.0844L11.9797 14.4617C11.737 14.4977 11.6397 14.795 11.8157 14.9671L13.693 16.795L13.249 19.3804C13.2077 19.6217 13.4623 19.8057 13.6797 19.6924L15.9997 18.4724Z" stroke="white" stroke-width="1.5" stroke-linecap="round" stroke-linejoin="round"/>
</svg>
