<svg width="24" height="22" viewBox="0 0 24 22" fill="none" xmlns="http://www.w3.org/2000/svg">
<path fill-rule="evenodd" clip-rule="evenodd" d="M2.70713 0.292847L1.29292 1.70706L5.35774 5.77188C4.97908 6.08569 4.60434 6.42271 4.23373 6.7811C3.40451 7.583 2.65433 8.43911 1.99393 9.29558C1.59543 9.81239 1.3125 10.2189 1.15759 10.4612L0.812988 11L1.15759 11.5388C1.3125 11.781 1.59543 12.1875 1.99393 12.7043C2.65433 13.5608 3.40451 14.4169 4.23373 15.2188C6.66434 17.5693 9.27247 19 12 19C13.7209 19 15.3943 18.4304 17.0056 17.4197L21.2929 21.7071L22.7071 20.2928L2.70713 0.292847ZM15.5447 15.9588L14.032 14.4461C13.4365 14.798 12.7418 15 12 15C9.79088 15 8.00002 13.2091 8.00002 11C8.00002 10.2581 8.20195 9.5635 8.55384 8.96799L6.77974 7.19389C6.39235 7.5063 6.0068 7.84868 5.62406 8.2188C4.86986 8.94816 4.18241 9.73267 3.57777 10.5168C3.44718 10.6862 3.32651 10.8478 3.21619 11C3.32651 11.1521 3.44718 11.3137 3.57777 11.4831C4.18241 12.2672 4.86986 13.0518 5.62406 13.7811C7.71751 15.8056 9.89495 17 12 17C13.1682 17 14.3586 16.6322 15.5447 15.9588ZM10.0678 10.4819C10.0236 10.6471 10 10.8208 10 11C10 12.1045 10.8955 13 12 13C12.1792 13 12.3528 12.9764 12.5181 12.9322L10.0678 10.4819ZM20.0981 14.8909L18.6838 13.4767C19.318 12.8356 19.9009 12.1592 20.4223 11.4831C20.5529 11.3137 20.6735 11.1521 20.7839 11C20.6735 10.8478 20.5529 10.6862 20.4223 10.5168C19.8176 9.73267 19.1302 8.94816 18.376 8.2188C16.2825 6.19433 14.1051 4.99995 12 4.99995C11.4777 4.99995 10.951 5.07348 10.4221 5.21497L8.84017 3.633C9.87262 3.22133 10.9271 2.99995 12 2.99995C14.7276 2.99995 17.3357 4.43058 19.7663 6.7811C20.5955 7.583 21.3457 8.43911 22.0061 9.29558C22.4046 9.81239 22.6875 10.2189 22.8425 10.4612L23.1871 11L22.8425 11.5388C22.6875 11.781 22.4046 12.1875 22.0061 12.7043C21.4349 13.4451 20.7966 14.1855 20.0981 14.8909Z" fill="#9A9AB0"/>
</svg>
